<svg xmlns="http://www.w3.org/2000/svg" viewBox="0 0 100 100" fill="currentColor">
  <!-- Robot head -->
  <rect x="25" y="15" width="50" height="40" rx="8" stroke="currentColor" stroke-width="3" fill="none"/>
  <!-- Eyes -->
  <circle cx="35" cy="30" r="4" fill="currentColor"/>
  <circle cx="65" cy="30" r="4" fill="currentColor"/>
  <!-- Mouth -->
  <rect x="40" y="40" width="20" height="3" rx="1.5" fill="currentColor"/>
  <!-- Firebase flame antennae -->
  <path d="M40 15 Q35 5, 40 5 Q45 10, 40 15" fill="currentColor"/>
  <path d="M60 15 Q55 5, 60 5 Q65 10, 60 15" fill="currentColor"/>
  <!-- Body -->
  <rect x="30" y="55" width="40" height="30" rx="5" stroke="currentColor" stroke-width="3" fill="none"/>
  <!-- Firebase flame pattern in body -->
  <path d="M40 62 Q35 67, 40 72 Q45 67, 40 62" fill="currentColor"/>
  <path d="M55 65 Q50 70, 55 75 Q60 70, 55 65" fill="currentColor"/>
  <!-- Arms -->
  <rect x="15" y="60" width="15" height="4" rx="2" fill="currentColor"/>
  <rect x="70" y="60" width="15" height="4" rx="2" fill="currentColor"/>
  <!-- Legs -->
  <rect x="35" y="85" width="6" height="10" rx="3" fill="currentColor"/>
  <rect x="59" y="85" width="6" height="10" rx="3" fill="currentColor"/>
</svg>
